<?xml version="1.0" encoding="iso-8859-1"?>
<!-- Generator: Adobe Illustrator 19.0.0, SVG Export Plug-In . SVG Version: 6.00 Build 0)  -->
<svg version="1.1" id="Capa_1" xmlns="http://www.w3.org/2000/svg" xmlns:xlink="http://www.w3.org/1999/xlink" x="0px" y="0px"
	 viewBox="0 0 512 512" style="enable-background:new 0 0 512 512;" xml:space="preserve">
<path style="fill:#FFAAB4;" d="M504.5,329.536c0,87.38-62.266,106.31-128.262,106.824c-44.327,0.345-80.158-8.021-120.29-8.021
	c-40.029,0-75.618,8.436-120.19,8.016C69.902,435.734,7.5,416.649,7.5,329.536C7.5,180.348,118.757,75.629,256,75.629
	S504.5,180.348,504.5,329.536z"/>
<path style="fill:#FF96A0;" d="M119.726,342.609c0-122.395,56.629-219.315,139.606-266.9c-1.114-0.014-2.214-0.079-3.331-0.079
	c-137.243,0-248.5,104.719-248.5,253.907c0,87.113,62.401,106.198,128.259,106.819c5.578,0.052,11.015-0.034,16.338-0.225
	C132.24,417.025,119.726,387.48,119.726,342.609z"/>
<ellipse transform="matrix(-0.5 -0.866 0.866 -0.5 298.4033 749.3863)" style="fill:#E6646E;" cx="365.528" cy="288.553" rx="68.899" ry="56.627"/>
<path style="fill:#4B3F4E;" d="M380.705,259.465c-12.763-22.107-36.606-32.717-55.952-26.092
	c-19.625,16.153-24.728,46.92-12.448,75.054c15.009,19.529,39.37,27.022,57.539,16.531
	C390.005,313.319,394.868,283.996,380.705,259.465z"/>
<ellipse transform="matrix(-0.5 0.866 -0.866 -0.5 469.7913 305.8937)" style="fill:#E6646E;" cx="146.593" cy="288.562" rx="68.899" ry="56.627"/>
<path style="fill:#4B3F4E;" d="M131.426,259.465c12.763-22.107,36.606-32.717,55.952-26.092
	c19.625,16.153,24.728,46.92,12.448,75.054c-15.009,19.529-39.37,27.022-57.539,16.531
	C122.125,313.319,117.263,283.996,131.426,259.465z"/>
<path d="M183.695,221.164c-30.975-16.693-72.472-0.026-92.507,37.148c-1.965,3.646-0.602,8.195,3.044,10.16
	c3.646,1.964,8.195,0.601,10.161-3.044c10.242-19.005,27.061-31.543,44.041-34.888c-9.443,5.881-17.757,14.608-23.611,25.472
	c-15.585,28.92-8.542,63.079,15.702,76.145c6.504,3.505,13.588,5.193,20.794,5.193c2.396,0,4.803-0.196,7.207-0.566
	c-3.838,2.726-7.911,5.005-12.164,6.767c-13.432,5.562-27.007,5.296-38.223-0.749c-15.458-8.331-24.093-26.671-22.534-47.862
	c0.304-4.131-2.798-7.726-6.93-8.03c-4.111-0.304-7.725,2.799-8.029,6.93c-1.999,27.17,9.641,50.992,30.376,62.167
	c8.099,4.365,17.007,6.554,26.226,6.554c8.156,0,16.557-1.714,24.854-5.15c17.144-7.101,31.856-20.792,41.429-38.553
	c9.571-17.76,12.918-37.578,9.422-55.801C209.348,244.267,198.958,229.39,183.695,221.164z M147.642,318.953
	c-16.963-9.142-21.275-34.185-9.613-55.824c9.67-17.945,27.488-28.37,43.512-25.559c8.516,6.415,14.368,16.257,16.68,28.313
	c2.452,12.782,0.702,26.633-4.898,39.64C180.628,320.784,161.536,326.441,147.642,318.953z"/>
<path d="M437.011,141.326C389.661,94.124,325.377,68.129,256,68.129S122.339,94.124,74.989,141.326
	C26.632,189.531,0,256.372,0,329.537c0,42.36,14.4,73.348,42.8,92.102c22.061,14.568,52.444,21.835,92.889,22.216
	c23.798,0.23,44.979-2.019,65.468-4.189c18.584-1.968,36.138-3.827,54.792-3.827c18.816,0,36.534,1.864,55.292,3.837
	c19.621,2.063,39.883,4.195,62.321,4.195c0.908,0,1.82-0.003,2.735-0.01c40.518-0.316,70.922-7.538,92.952-22.078
	C497.616,403.059,512,372.023,512,329.536C512,256.372,485.368,189.531,437.011,141.326z M460.985,409.264
	c-19.535,12.895-47.275,19.305-84.806,19.597c-22.671,0.186-43.369-1.998-63.371-4.103c-19.16-2.015-37.257-3.919-56.86-3.919
	c-19.446,0-37.383,1.899-56.371,3.91c-20.068,2.125-40.81,4.32-63.748,4.106c-37.463-0.353-65.189-6.808-84.764-19.734
	C26.797,393.096,15,367.063,15,329.537c0-69.149,25.065-132.217,70.579-177.587C130.098,107.57,190.621,83.129,256,83.129
	s125.902,24.44,170.421,68.819C471.935,197.319,497,260.388,497,329.536C497,367.189,485.22,393.268,460.985,409.264z"/>
<path d="M423.59,286.91c-4.132,0.304-7.233,3.899-6.93,8.03c1.559,21.191-7.076,39.531-22.534,47.862
	c-11.216,6.045-24.79,6.313-38.223,0.749c-4.254-1.762-8.329-4.042-12.168-6.769c2.405,0.37,4.814,0.569,7.211,0.569
	c7.204,0,14.291-1.688,20.795-5.193c24.243-13.066,31.286-47.224,15.701-76.145c-5.856-10.865-14.172-19.592-23.618-25.473
	c16.983,3.342,33.804,15.881,44.047,34.889c1.965,3.647,6.515,5.01,10.161,3.044c3.646-1.965,5.009-6.514,3.044-10.16
	c-20.035-37.175-61.529-53.841-92.507-37.148c-15.263,8.226-25.652,23.103-29.257,41.893c-3.496,18.223-0.149,38.041,9.422,55.801
	c9.572,17.761,24.285,31.452,41.429,38.553c8.299,3.437,16.696,5.15,24.854,5.15c9.218,0,18.128-2.19,26.226-6.554
	c20.735-11.175,32.375-34.997,30.376-62.167C431.315,289.709,427.715,286.611,423.59,286.91z M314.045,265.882
	c2.312-12.056,8.164-21.898,16.68-28.313c16.026-2.809,33.843,7.615,43.512,25.559c11.662,21.64,7.35,46.682-9.612,55.824
	c-13.898,7.488-32.986,1.83-45.682-13.431C313.343,292.515,311.593,278.664,314.045,265.882z"/>
<g>
</g>
<g>
</g>
<g>
</g>
<g>
</g>
<g>
</g>
<g>
</g>
<g>
</g>
<g>
</g>
<g>
</g>
<g>
</g>
<g>
</g>
<g>
</g>
<g>
</g>
<g>
</g>
<g>
</g>
</svg>
